#Comment line ignore any data following # character 
#Hierarchical Translation and Rotation (.htr) file 
[Header]	
#Header keywords are followed by a single value 
FileType HTR		#Single word string
DataType HTRS		#Translation followed by rotation and scale data
FileVersion 1		#integer
NumSegments 84		#integer
NumFrames 2		#integer
DataFrameRate 30		#integer, data frame rate in this file
EulerRotationOrder ZYX
CalibrationUnits mm
RotationUnits Degrees
GlobalAxisofGravity Y
BoneLengthAxis Y
ScaleFactor 1.00
[SegmentNames&Hierarchy]
#CHILD	PARENT
MASTER GLOBAL
root MASTER
chest root
L_mid_tent01 root
R_mid_tent01 root
spine01 root
Bip01_Neck chest
L_humerus chest
R_humerus chest
weapon_bone chest
Bip01_Head Bip01_Neck
eye_left_bone Bip01_Head
eye_right_bone Bip01_Head
L_forearm L_humerus
L_front_hand L_forearm
L_weapon_bone L_forearm
L_front_hand01_01 L_front_hand
L_front_hand02_01 L_front_hand
L_front_hand03_01 L_front_hand
L_front_hand01_02 L_front_hand01_01
L_front_hand02_02 L_front_hand02_01
L_front_hand03_02 L_front_hand03_01
R_forearm R_humerus
R_front_hand R_forearm
R_weapon_bone R_forearm
R_front_hand01_01 R_front_hand
R_front_hand02_01 R_front_hand
R_front_hand03_01 R_front_hand
R_front_hand01_02 R_front_hand01_01
R_front_hand02_02 R_front_hand02_01
R_front_hand03_02 R_front_hand03_01
null_rope01_connect L_mid_tent01
Rope1_Seg01 null_rope01_connect
Rope1_Seg02 Rope1_Seg01
Rope1_Seg03 Rope1_Seg02
Rope1_Seg04 Rope1_Seg03
Rope1_Seg05 Rope1_Seg04
Rope1_Seg06 Rope1_Seg05
Rope1_Seg07 Rope1_Seg06
Rope1_Seg09 Rope1_Seg07
L_mid_hand01 Rope1_Seg09
L_mid_hand02 Rope1_Seg09
L_mid_hand03 Rope1_Seg09
null_rope02_connect R_mid_tent01
Rope2_Seg01 null_rope02_connect
Rope2_Seg02 Rope2_Seg01
Rope2_Seg03 Rope2_Seg02
Rope2_Seg04 Rope2_Seg03
Rope2_Seg05 Rope2_Seg04
Rope2_Seg06 Rope2_Seg05
Rope2_Seg07 Rope2_Seg06
Rope2_Seg09 Rope2_Seg07
R_mid_hand01 Rope2_Seg09
R_mid_hand02 Rope2_Seg09
R_mid_hand03 Rope2_Seg09
spine02 spine01
spine03 spine02
pelvis spine03
null_rope03_connect pelvis
null_rope04_connect pelvis
Rope3_Seg01 null_rope03_connect
Rope3_Seg02 Rope3_Seg01
Rope3_Seg03 Rope3_Seg02
Rope3_Seg04 Rope3_Seg03
Rope3_Seg05 Rope3_Seg04
Rope3_Seg06 Rope3_Seg05
Rope3_Seg07 Rope3_Seg06
Rope3_Seg08 Rope3_Seg07
Rope3_Seg09 Rope3_Seg08
R_rear_hand01 Rope3_Seg09
R_rear_hand02 Rope3_Seg09
R_rear_hand03 Rope3_Seg09
Rope4_Seg01 null_rope04_connect
Rope4_Seg02 Rope4_Seg01
Rope4_Seg03 Rope4_Seg02
Rope4_Seg04 Rope4_Seg03
Rope4_Seg05 Rope4_Seg04
Rope4_Seg06 Rope4_Seg05
Rope4_Seg07 Rope4_Seg06
Rope4_Seg08 Rope4_Seg07
Rope4_Seg09 Rope4_Seg08
L_rear_hand01 Rope4_Seg09
L_rear_hand02 Rope4_Seg09
L_rear_hand03 Rope4_Seg09
[BasePosition]
#SegmentName Tx, Ty, Tz, Rx, Ry, Rz, BoneLength
MASTER 0.000000 0.000000 0.000000 -90.000000 0.000000 0.000000 10.000000 
root 0.000000 0.000000 0.000000 0.000000 0.000000 0.000000 10.000000 
chest 0.000000 0.000000 0.000000 0.000000 0.000000 0.000000 10.000000 
L_mid_tent01 0.000000 0.000000 0.000000 0.000000 0.000000 0.000000 10.000000 
R_mid_tent01 0.000000 0.000000 0.000000 0.000000 0.000000 0.000000 10.000000 
spine01 0.000000 0.000000 0.000000 0.000000 0.000000 0.000000 10.000000 
Bip01_Neck 0.000000 0.000000 0.000000 0.000000 0.000000 0.000000 10.000000 
L_humerus 0.000000 0.000000 0.000000 0.000000 0.000000 0.000000 10.000000 
R_humerus 0.000000 0.000000 0.000000 0.000000 0.000000 0.000000 10.000000 
weapon_bone 0.000000 0.000000 0.000000 0.000000 0.000000 0.000000 10.000000 
Bip01_Head 0.000000 0.000000 0.000000 0.000000 0.000000 0.000000 10.000000 
eye_left_bone 0.000000 0.000000 0.000000 0.000000 0.000000 0.000000 10.000000 
eye_right_bone 0.000000 0.000000 0.000000 0.000000 0.000000 0.000000 10.000000 
L_forearm 0.000000 0.000000 0.000000 0.000000 0.000000 0.000000 10.000000 
L_front_hand 0.000000 0.000000 0.000000 0.000000 0.000000 0.000000 10.000000 
L_weapon_bone 0.000000 0.000000 0.000000 0.000000 0.000000 0.000000 10.000000 
L_front_hand01_01 0.000000 0.000000 0.000000 0.000000 0.000000 0.000000 10.000000 
L_front_hand02_01 0.000000 0.000000 0.000000 0.000000 0.000000 0.000000 10.000000 
L_front_hand03_01 0.000000 0.000000 0.000000 0.000000 0.000000 0.000000 10.000000 
L_front_hand01_02 0.000000 0.000000 0.000000 0.000000 0.000000 0.000000 10.000000 
L_front_hand02_02 0.000000 0.000000 0.000000 0.000000 0.000000 0.000000 10.000000 
L_front_hand03_02 0.000000 0.000000 0.000000 0.000000 0.000000 0.000000 10.000000 
R_forearm 0.000000 0.000000 0.000000 0.000000 0.000000 0.000000 10.000000 
R_front_hand 0.000000 0.000000 0.000000 0.000000 0.000000 0.000000 10.000000 
R_weapon_bone 0.000000 0.000000 0.000000 0.000000 0.000000 0.000000 10.000000 
R_front_hand01_01 0.000000 0.000000 0.000000 0.000000 0.000000 0.000000 10.000000 
R_front_hand02_01 0.000000 0.000000 0.000000 0.000000 0.000000 0.000000 10.000000 
R_front_hand03_01 0.000000 0.000000 0.000000 0.000000 0.000000 0.000000 10.000000 
R_front_hand01_02 0.000000 0.000000 0.000000 0.000000 0.000000 0.000000 10.000000 
R_front_hand02_02 0.000000 0.000000 0.000000 0.000000 0.000000 0.000000 10.000000 
R_front_hand03_02 0.000000 0.000000 0.000000 0.000000 0.000000 0.000000 10.000000 
null_rope01_connect 0.000000 0.000000 0.000000 0.000000 0.000000 0.000000 10.000000 
Rope1_Seg01 0.000000 0.000000 0.000000 0.000000 0.000000 0.000000 10.000000 
Rope1_Seg02 0.000000 0.000000 0.000000 0.000000 0.000000 0.000000 10.000000 
Rope1_Seg03 0.000000 0.000000 0.000000 0.000000 0.000000 0.000000 10.000000 
Rope1_Seg04 0.000000 0.000000 0.000000 0.000000 0.000000 0.000000 10.000000 
Rope1_Seg05 0.000000 0.000000 0.000000 0.000000 0.000000 0.000000 10.000000 
Rope1_Seg06 0.000000 0.000000 0.000000 0.000000 0.000000 0.000000 10.000000 
Rope1_Seg07 0.000000 0.000000 0.000000 0.000000 0.000000 0.000000 10.000000 
Rope1_Seg09 0.000000 0.000000 0.000000 0.000000 0.000000 0.000000 10.000000 
L_mid_hand01 0.000000 0.000000 0.000000 0.000000 0.000000 0.000000 10.000000 
L_mid_hand02 0.000000 0.000000 0.000000 0.000000 0.000000 0.000000 10.000000 
L_mid_hand03 0.000000 0.000000 0.000000 0.000000 0.000000 0.000000 10.000000 
null_rope02_connect 0.000000 0.000000 0.000000 0.000000 0.000000 0.000000 10.000000 
Rope2_Seg01 0.000000 0.000000 0.000000 0.000000 0.000000 0.000000 10.000000 
Rope2_Seg02 0.000000 0.000000 0.000000 0.000000 0.000000 0.000000 10.000000 
Rope2_Seg03 0.000000 0.000000 0.000000 0.000000 0.000000 0.000000 10.000000 
Rope2_Seg04 0.000000 0.000000 0.000000 0.000000 0.000000 0.000000 10.000000 
Rope2_Seg05 0.000000 0.000000 0.000000 0.000000 0.000000 0.000000 10.000000 
Rope2_Seg06 0.000000 0.000000 0.000000 0.000000 0.000000 0.000000 10.000000 
Rope2_Seg07 0.000000 0.000000 0.000000 0.000000 0.000000 0.000000 10.000000 
Rope2_Seg09 0.000000 0.000000 0.000000 0.000000 0.000000 0.000000 10.000000 
R_mid_hand01 0.000000 0.000000 0.000000 0.000000 0.000000 0.000000 10.000000 
R_mid_hand02 0.000000 0.000000 0.000000 0.000000 0.000000 0.000000 10.000000 
R_mid_hand03 0.000000 0.000000 0.000000 0.000000 0.000000 0.000000 10.000000 
spine02 0.000000 0.000000 0.000000 0.000000 0.000000 0.000000 10.000000 
spine03 0.000000 0.000000 0.000000 0.000000 0.000000 0.000000 10.000000 
pelvis 0.000000 0.000000 0.000000 0.000000 0.000000 0.000000 10.000000 
null_rope03_connect 0.000000 0.000000 0.000000 0.000000 0.000000 0.000000 10.000000 
null_rope04_connect 0.000000 0.000000 0.000000 0.000000 0.000000 0.000000 10.000000 
Rope3_Seg01 0.000000 0.000000 0.000000 0.000000 0.000000 0.000000 10.000000 
Rope3_Seg02 0.000000 0.000000 0.000000 0.000000 0.000000 0.000000 10.000000 
Rope3_Seg03 0.000000 0.000000 0.000000 0.000000 0.000000 0.000000 10.000000 
Rope3_Seg04 0.000000 0.000000 0.000000 0.000000 0.000000 0.000000 10.000000 
Rope3_Seg05 0.000000 0.000000 0.000000 0.000000 0.000000 0.000000 10.000000 
Rope3_Seg06 0.000000 0.000000 0.000000 0.000000 0.000000 0.000000 10.000000 
Rope3_Seg07 0.000000 0.000000 0.000000 0.000000 0.000000 0.000000 10.000000 
Rope3_Seg08 0.000000 0.000000 0.000000 0.000000 0.000000 0.000000 10.000000 
Rope3_Seg09 0.000000 0.000000 0.000000 0.000000 0.000000 0.000000 10.000000 
R_rear_hand01 0.000000 0.000000 0.000000 0.000000 0.000000 0.000000 10.000000 
R_rear_hand02 0.000000 0.000000 0.000000 0.000000 0.000000 0.000000 10.000000 
R_rear_hand03 0.000000 0.000000 0.000000 0.000000 0.000000 0.000000 10.000000 
Rope4_Seg01 0.000000 0.000000 0.000000 0.000000 0.000000 0.000000 10.000000 
Rope4_Seg02 0.000000 0.000000 0.000000 0.000000 0.000000 0.000000 10.000000 
Rope4_Seg03 0.000000 0.000000 0.000000 0.000000 0.000000 0.000000 10.000000 
Rope4_Seg04 0.000000 0.000000 0.000000 0.000000 0.000000 0.000000 10.000000 
Rope4_Seg05 0.000000 0.000000 0.000000 0.000000 0.000000 0.000000 10.000000 
Rope4_Seg06 0.000000 0.000000 0.000000 0.000000 0.000000 0.000000 10.000000 
Rope4_Seg07 0.000000 0.000000 0.000000 0.000000 0.000000 0.000000 10.000000 
Rope4_Seg08 0.000000 0.000000 0.000000 0.000000 0.000000 0.000000 10.000000 
Rope4_Seg09 0.000000 0.000000 0.000000 0.000000 0.000000 0.000000 10.000000 
L_rear_hand01 0.000000 0.000000 0.000000 0.000000 0.000000 0.000000 10.000000 
L_rear_hand02 0.000000 0.000000 0.000000 0.000000 0.000000 0.000000 10.000000 
L_rear_hand03 0.000000 0.000000 0.000000 0.000000 0.000000 0.000000 10.000000 
#Beginning of Data. Separated by tabs
#Fr	Tx	Ty	Tz	Rx	Ry	Rz	SF
[MASTER]
31 -0.001053 7053.204102 0.000000 0.001660 0.001660 0.001660 7053.204102
32 -0.001094 7321.829590 0.000000 0.001660 0.001660 0.001660 7321.829590
[root]
31 -141.264008 357.830200 1572.595825 -99.546326 -1.088726 -79.321899 1618.967407
32 -126.622574 311.451416 1550.567871 -98.897491 -0.897025 -80.626488 1586.598755
[chest]
31 -84.512650 -34.090519 0.000000 -4.883928 1.981831 -178.071045 91.129311
32 -84.512650 -34.090519 0.000000 -5.264975 1.959772 -179.230194 91.129311
[L_mid_tent01]
31 27.299248 22.179050 -249.918915 -22.602844 44.056183 20.789787 252.381897
32 27.299240 22.179102 -249.918945 -22.599695 40.481903 19.799316 252.381927
[R_mid_tent01]
31 23.228794 24.509907 226.238495 176.355820 -12.856401 58.960804 228.744751
32 23.228794 24.509907 226.238495 178.872055 -13.230497 53.851063 228.744751
[spine01]
31 -0.361383 -0.195265 0.000000 0.143510 0.060023 21.154209 0.410763
32 -0.361383 -0.195265 0.000000 0.120165 0.050976 21.280512 0.410763
[Bip01_Neck]
31 165.484543 71.581718 0.000119 175.896118 1.177290 24.871183 180.302734
32 165.484543 71.581718 0.000119 175.896118 1.177290 24.871183 180.302734
[L_humerus]
31 -13.983130 -135.272980 -120.471481 -4.622338 68.130821 84.848251 181.680161
32 -13.983130 -135.272980 -120.471481 -4.742455 68.318085 84.722534 181.680161
[R_humerus]
31 -13.983309 -135.273102 125.287651 -151.401703 -64.595787 -126.359894 184.909012
32 -13.983309 -135.273102 125.287651 -144.540512 -65.539551 -132.135056 184.909012
[weapon_bone]
31 235.964890 -300.705902 0.000000 0.000000 -89.951546 -128.212341 382.234833
32 235.964890 -300.705902 0.000000 0.000000 -89.951546 -128.212341 382.234833
[Bip01_Head]
31 233.769516 208.614655 -10.779419 -45.957504 13.110875 -55.483646 313.503540
32 236.147446 204.407349 -10.561066 -43.047775 12.707056 -55.871723 312.505219
[eye_left_bone]
31 -24.626970 125.451866 -64.772606 0.000000 -90.000000 -99.840431 143.318359
32 -24.626970 125.451866 -64.772606 0.000000 -90.000000 -99.840431 143.318359
[eye_right_bone]
31 -24.626970 125.451866 64.327362 0.000000 -89.960434 80.159386 143.117676
32 -24.626970 125.451866 64.327362 0.000000 -89.960434 80.159386 143.117676
[L_forearm]
31 322.776093 0.000000 -0.000119 0.000351 -0.002321 -107.198280 322.776093
32 322.776093 0.000000 -0.000119 0.000357 -0.002320 -107.487610 322.776093
[L_front_hand]
31 241.149185 -0.042021 -3.300071 -178.667953 -1.835447 -27.422350 241.171753
32 241.149185 -0.042021 -3.300071 -178.667953 -1.835447 -27.422342 241.171753
[L_weapon_bone]
31 156.183838 0.000000 0.000000 0.000014 0.000007 0.000001 156.183838
32 156.183838 0.000000 0.000000 0.000014 0.000007 0.000001 156.183838
[L_front_hand01_01]
31 86.095154 20.947098 -0.655860 -0.366594 -0.477154 75.385574 88.609184
32 86.095154 20.947098 -0.655860 -0.366594 -0.477154 75.385574 88.609184
[L_front_hand02_01]
31 86.935165 -11.437475 24.513514 154.403519 -59.888931 -61.371990 91.046425
32 86.935165 -11.437475 24.513514 154.403519 -59.888931 -61.371990 91.046425
[L_front_hand03_01]
31 86.637497 -14.123976 -20.424902 -153.913849 58.118122 -62.702866 90.126129
32 86.637497 -14.123976 -20.424902 -153.913849 58.118122 -62.702866 90.126129
[L_front_hand01_02]
31 71.020905 -0.000179 0.000030 0.000334 -0.002323 -106.379684 71.020905
32 71.020905 -0.000179 0.000030 0.000334 -0.002323 -106.379684 71.020905
[L_front_hand02_02]
31 71.020927 -0.000119 0.000060 0.000334 -0.002323 -106.379684 71.020927
32 71.020927 -0.000119 0.000060 0.000334 -0.002323 -106.379684 71.020927
[L_front_hand03_02]
31 71.020905 -0.000060 0.000060 0.000334 -0.002323 -106.379684 71.020905
32 71.020905 -0.000060 0.000060 0.000334 -0.002323 -106.379684 71.020905
[R_forearm]
31 322.776428 -0.000060 0.000030 0.213295 0.003866 -91.459335 322.776428
32 322.776428 -0.000060 0.000030 0.211210 0.033584 -99.952789 322.776428
[R_front_hand]
31 238.847015 -0.006795 2.210259 50.873802 12.697777 -29.770763 238.857239
32 238.847015 -0.006795 2.210259 42.534077 12.181965 -33.528893 238.857239
[R_weapon_bone]
31 155.664093 0.002503 -0.000030 0.003487 0.001180 -90.988930 155.664078
32 155.664093 0.002503 -0.000030 0.003487 0.001180 -90.988930 155.664078
[R_front_hand01_01]
31 87.624611 14.231146 22.918642 -154.633499 -59.950619 61.746044 91.683487
32 87.624611 14.231146 22.918642 -154.633514 -59.950634 61.746063 91.683487
[R_front_hand02_01]
31 89.356956 14.367283 -19.491137 154.602661 58.302849 63.744389 92.579636
32 89.356956 14.367283 -19.491137 154.602661 58.302849 63.744389 92.579636
[R_front_hand03_01]
31 87.286232 -22.307278 -0.143439 0.162155 -0.423168 -75.767921 90.091743
32 87.286232 -22.307278 -0.143439 0.162155 -0.423168 -75.767906 90.091743
[R_front_hand01_02]
31 71.020905 0.000060 0.000119 0.002323 -0.000334 106.381714 71.020905
32 71.020905 0.000060 0.000119 0.002323 -0.000334 106.381714 71.020905
[R_front_hand02_02]
31 71.020844 -0.000030 -0.000119 0.002323 -0.000334 106.381714 71.020836
32 71.020844 -0.000030 -0.000119 0.002323 -0.000334 106.381714 71.020836
[R_front_hand03_02]
31 71.020905 0.000000 0.000030 0.002323 -0.000334 106.381714 71.020905
32 71.020905 0.000000 0.000030 0.002323 -0.000334 106.381714 71.020905
[null_rope01_connect]
31 328.732483 0.000000 -0.000238 -151.756180 -39.462383 -139.896744 328.732483
32 328.732483 0.000000 -0.000238 -152.761276 -42.114178 -138.462555 328.732483
[Rope1_Seg01]
31 0.000000 0.000000 0.000000 84.132378 8.075749 -133.181641 0.000000
32 0.000000 0.000000 0.000000 86.051781 9.346525 -133.098816 0.000000
[Rope1_Seg02]
31 139.999863 -0.000179 0.000000 25.961758 -12.276701 -5.181046 139.999863
32 139.999863 -0.000179 0.000000 27.020540 -11.536484 -5.426634 139.999863
[Rope1_Seg03]
31 139.999924 0.000060 -0.000060 20.046764 -30.525177 2.108133 139.999924
32 139.999924 0.000060 -0.000060 21.177305 -29.321899 1.564582 139.999924
[Rope1_Seg04]
31 139.999924 -0.000060 -0.000119 -1.035883 -31.794428 18.427832 139.999924
32 139.999924 -0.000060 -0.000119 -0.211456 -31.863611 18.055040 139.999924
[Rope1_Seg05]
31 139.999832 0.000119 -0.000060 -2.840311 -20.214798 8.076452 139.999832
32 139.999832 0.000119 -0.000060 -3.474059 -25.531246 7.992706 139.999832
[Rope1_Seg06]
31 139.999954 0.000119 -0.000060 -11.734370 -27.651831 5.934697 139.999954
32 139.999954 0.000119 -0.000060 -15.553329 -32.561604 5.962442 139.999954
[Rope1_Seg07]
31 139.999985 0.000060 0.000000 -13.317140 -17.281050 1.137951 139.999985
32 139.999985 0.000060 0.000000 -14.151540 -16.423048 -0.342487 139.999985
[Rope1_Seg09]
31 121.602913 0.000119 -0.000089 -89.793175 -1.359789 0.847147 121.602913
32 121.602913 0.000119 -0.000089 -89.793175 -1.359789 0.847147 121.602913
[L_mid_hand01]
31 103.859421 1.038730 8.195221 114.518471 -53.314373 -20.620211 104.187431
32 103.859421 1.038730 8.195221 114.518417 -53.314503 -20.620111 104.187431
[L_mid_hand02]
31 105.572853 -4.139662 -10.864139 -155.067673 38.166618 -52.448807 106.211075
32 105.572853 -4.139662 -10.864139 -155.067673 38.166626 -52.448818 106.211075
[L_mid_hand03]
31 104.641464 17.579376 -3.913581 -10.970130 15.317461 57.626949 106.179977
32 104.641464 17.579376 -3.913581 -10.970130 15.317461 57.626949 106.179977
[null_rope02_connect]
31 328.732849 0.000179 -0.000119 -88.492264 69.603065 59.736282 328.732849
32 328.732849 0.000179 -0.000119 -93.358353 71.905128 50.225681 328.732849
[Rope2_Seg01]
31 0.000077 0.000508 0.000091 15.199688 5.106122 -40.283485 0.000522
32 0.000080 0.000523 0.000089 16.614643 5.951085 -40.761932 0.000536
[Rope2_Seg02]
31 139.999741 -0.000060 -0.000119 -64.597694 12.914742 12.103802 139.999756
32 139.999741 -0.000060 -0.000119 -68.216843 12.906370 9.818905 139.999756
[Rope2_Seg03]
31 140.000107 0.000030 0.000000 -21.685440 -6.680473 16.336359 140.000107
32 140.000107 0.000030 0.000000 -21.267086 -5.420128 13.345476 140.000107
[Rope2_Seg04]
31 139.999802 0.000000 -0.000060 -5.839906 -8.617521 9.016602 139.999802
32 139.999802 0.000000 -0.000060 -7.145359 -6.599638 8.193010 139.999802
[Rope2_Seg05]
31 139.999985 -0.000060 0.000119 -9.189018 -6.854064 15.281366 139.999985
32 139.999985 -0.000060 0.000119 -12.875348 -5.083940 16.106974 139.999985
[Rope2_Seg06]
31 139.999893 -0.000030 -0.000119 -8.054389 -11.314971 22.005856 139.999893
32 139.999893 -0.000030 -0.000119 -9.300769 -9.859330 19.338430 139.999893
[Rope2_Seg07]
31 139.999893 0.000060 -0.000060 -1.800001 -9.687699 12.953246 139.999893
32 139.999893 0.000060 -0.000060 -2.865345 -8.996054 11.619953 139.999893
[Rope2_Seg09]
31 121.338966 0.000089 -0.000060 136.879395 0.546403 -1.506368 121.338966
32 121.338966 0.000089 -0.000060 136.879395 0.546403 -1.506368 121.338966
[R_mid_hand01]
31 104.680779 11.144459 -10.335981 -39.248650 29.171114 33.551922 105.778534
32 104.680779 11.144459 -10.335981 -39.248650 29.171114 33.551922 105.778534
[R_mid_hand02]
31 104.070427 2.443552 8.231699 71.586517 -38.253605 12.182658 104.424065
32 104.070427 2.443552 8.231699 71.586517 -38.253605 12.182658 104.424065
[R_mid_hand03]
31 106.028137 -11.221827 -5.996406 -168.987167 11.419018 -42.774643 106.788818
32 106.028137 -11.221827 -5.996406 -168.987167 11.419018 -42.774643 106.788818
[spine02]
31 129.756927 0.001550 0.000119 0.084033 -11.158654 -6.848262 129.756927
32 129.756927 0.001550 0.000119 0.165511 -10.191942 -7.685266 129.756927
[spine03]
31 78.593315 0.085855 -5.099905 1.829758 3.651057 16.456923 78.758652
32 78.596260 0.085208 -5.071202 1.825828 3.634640 16.411457 78.759735
[pelvis]
31 169.435242 0.051022 0.000000 -0.057060 -0.223640 11.791098 169.435257
32 169.435242 0.051022 0.000000 -0.057743 -0.216013 12.121938 169.435257
[null_rope03_connect]
31 -1.257226 -2.466202 137.391083 111.883179 -71.331245 -63.287106 137.418976
32 -1.257226 -2.466202 137.391083 113.264870 -73.510345 -64.440613 137.418976
[null_rope04_connect]
31 -1.259640 -2.480268 -137.844437 111.883179 -71.331245 -63.287106 137.872513
32 -1.259640 -2.480268 -137.844437 113.264870 -73.510345 -64.440613 137.872513
[Rope3_Seg01]
31 0.000014 -0.000502 0.000000 -146.194504 -49.012455 -63.925102 0.000502
32 0.000012 -0.000518 0.000000 -142.773270 -44.126537 -66.185051 0.000518
[Rope3_Seg02]
31 139.999924 -0.000119 0.000060 -0.113652 -3.070347 -6.043904 139.999924
32 139.999924 -0.000119 0.000060 0.546990 -4.295934 -5.420455 139.999924
[Rope3_Seg03]
31 139.999924 -0.000119 0.000119 -0.422022 -5.370263 -10.763210 139.999924
32 139.999924 -0.000119 0.000119 1.723124 -8.277472 -10.412255 139.999924
[Rope3_Seg04]
31 139.999924 0.000119 0.000000 -0.995473 -11.261837 -21.022146 139.999924
32 139.999924 0.000119 0.000000 9.988924 -17.300198 -21.420166 139.999924
[Rope3_Seg05]
31 139.999924 -0.000238 0.000060 -87.538643 -10.576077 -24.974779 139.999924
32 139.999924 -0.000238 0.000060 161.831711 -28.618530 -32.445251 139.999924
[Rope3_Seg06]
31 139.999893 -0.000119 -0.000060 -66.667343 45.366497 -11.402931 139.999893
32 139.999893 -0.000119 -0.000060 20.170200 15.849357 61.359573 139.999893
[Rope3_Seg07]
31 139.999771 0.000060 -0.000119 5.193852 22.066031 30.012733 139.999771
32 139.999771 0.000060 -0.000119 1.415523 7.439518 13.621668 139.999771
[Rope3_Seg08]
31 139.999985 -0.000060 0.000000 0.978092 6.496996 7.830745 139.999985
32 139.999985 -0.000060 0.000000 0.556166 2.470182 4.363015 139.999985
[Rope3_Seg09]
31 90.185997 -0.000179 -0.000060 159.792526 -1.358243 -0.846482 90.185997
32 90.185997 -0.000179 -0.000060 159.792526 -1.358243 -0.846482 90.185997
[R_rear_hand01]
31 103.366196 -6.073594 -10.757982 -177.714203 24.565960 -73.910950 104.101845
32 103.366196 -6.073594 -10.757982 -177.714203 24.565960 -73.910950 104.101845
[R_rear_hand02]
31 100.509819 12.039542 -7.992327 -12.874827 36.868492 72.167221 101.543350
32 100.509819 12.039542 -7.992327 -12.874829 36.868488 72.167213 101.543350
[R_rear_hand03]
31 101.539970 5.215704 5.435467 71.484573 -71.816597 21.513800 101.819031
32 101.539970 5.215704 5.435467 71.484581 -71.816628 21.513813 101.819031
[Rope4_Seg01]
31 0.000064 -0.000968 0.000000 32.041729 37.409283 -130.993027 0.000970
32 0.000063 -0.001004 0.000000 31.711100 41.620045 -130.543137 0.001006
[Rope4_Seg02]
31 139.999985 0.000060 0.000119 0.901041 11.142225 7.474099 139.999985
32 139.999985 0.000060 0.000119 0.738263 6.653550 7.366823 139.999985
[Rope4_Seg03]
31 139.999924 0.000000 -0.000238 -0.076391 1.385256 4.186025 139.999924
32 139.999924 0.000000 -0.000238 -0.031834 -1.110702 3.964441 139.999924
[Rope4_Seg04]
31 139.999985 0.000000 0.000119 0.629232 9.979732 3.716121 139.999985
32 139.999985 0.000000 0.000119 0.180280 5.431088 3.555876 139.999985
[Rope4_Seg05]
31 139.999802 -0.000060 -0.000119 2.106315 13.487007 2.337900 139.999802
32 139.999802 -0.000060 -0.000119 1.362280 13.489506 3.036838 139.999802
[Rope4_Seg06]
31 139.999924 0.000000 0.000060 1.416893 6.131727 0.899784 139.999924
32 139.999924 0.000000 0.000060 1.310342 7.885955 1.435565 139.999924
[Rope4_Seg07]
31 139.999802 0.000000 0.000000 0.901076 3.208092 0.491989 139.999802
32 139.999802 0.000000 0.000000 0.717613 3.538777 0.751214 139.999802
[Rope4_Seg08]
31 139.999924 0.000000 0.000119 -0.938599 1.932832 0.267779 139.999924
32 139.999924 0.000000 0.000119 -1.058958 2.132436 0.422212 139.999924
[Rope4_Seg09]
31 90.185791 0.000060 0.000060 -135.617828 2.228885 0.850567 90.185791
32 90.185791 0.000060 0.000060 -135.617828 2.228885 0.850567 90.185791
[L_rear_hand01]
31 101.696655 -8.392275 -7.654577 -19.915020 -33.950905 119.950104 102.329041
32 101.696655 -8.392275 -7.654577 -19.915020 -33.950905 119.950104 102.329041
[L_rear_hand02]
31 102.726799 -1.568258 5.773216 77.862221 61.878510 165.399200 102.900848
32 102.726799 -1.568258 5.773216 77.862221 61.878510 165.399200 102.900848
[L_rear_hand03]
31 104.552910 9.721220 -10.420293 -173.099182 -23.740307 -117.327896 105.519653
32 104.552910 9.721220 -10.420293 -173.099182 -23.740307 -117.327896 105.519653
